<svg width="12" height="11" viewBox="0 0 12 11" fill="none" xmlns="http://www.w3.org/2000/svg">
<path d="M4.65412 10.6878C4.29988 10.6878 3.96015 10.5581 3.70966 10.3271C3.45918 10.0962 3.31846 9.78301 3.31846 9.45642C3.31846 9.12984 3.45918 8.81663 3.70966 8.5857C3.96015 8.35476 4.29988 8.22503 4.65412 8.22503C5.00836 8.22503 5.3481 8.35476 5.59858 8.5857C5.84907 8.81663 5.98979 9.12984 5.98979 9.45642C5.98979 9.78301 5.84907 10.0962 5.59858 10.3271C5.3481 10.5581 5.00836 10.6878 4.65412 10.6878ZM9.32896 10.6878C8.97472 10.6878 8.63498 10.5581 8.3845 10.3271C8.13401 10.0962 7.99329 9.78301 7.99329 9.45642C7.99329 9.12984 8.13401 8.81663 8.3845 8.5857C8.63498 8.35476 8.97472 8.22503 9.32896 8.22503C9.6832 8.22503 10.0229 8.35476 10.2734 8.5857C10.5239 8.81663 10.6646 9.12984 10.6646 9.45642C10.6646 9.78301 10.5239 10.0962 10.2734 10.3271C10.0229 10.5581 9.6832 10.6878 9.32896 10.6878ZM0.621745 2.02065C0.455028 2.0157 0.296938 1.95115 0.180907 1.84068C0.0648754 1.7302 0 1.58244 0 1.42866C0 1.27488 0.0648754 1.12713 0.180907 1.01665C0.296938 0.90617 0.455028 0.841627 0.621745 0.83667H1.39042C1.99281 0.83667 2.51372 1.2221 2.64461 1.76391L3.48141 5.23767C3.6123 5.77948 4.13321 6.16491 4.7356 6.16491H9.75236L10.7154 2.61234H4.47448C4.30933 2.60539 4.15344 2.54002 4.03924 2.42982C3.92503 2.31962 3.86131 2.17307 3.86131 2.02065C3.86131 1.86824 3.92503 1.72169 4.03924 1.61149C4.15344 1.50129 4.30933 1.43592 4.47448 1.42897H10.7154C10.9106 1.42892 11.1033 1.4699 11.2788 1.54881C11.4542 1.62771 11.6079 1.74246 11.728 1.88433C11.8482 2.0262 11.9316 2.19146 11.9721 2.36754C12.0126 2.54362 12.009 2.72588 11.9616 2.90049L10.9985 6.45182C10.9291 6.70807 10.7687 6.93556 10.5429 7.09811C10.3171 7.26066 10.0389 7.34894 9.75236 7.34889H4.7356C4.15111 7.34896 3.58407 7.16525 3.12813 6.82808C2.67219 6.49091 2.35463 6.02045 2.22788 5.49441L1.39042 2.02065H0.621745Z" fill="white"/>
</svg>
