<svg width="20" height="17" viewBox="0 0 20 17" fill="none" xmlns="http://www.w3.org/2000/svg">
<path d="M3 4.86494V2.74695C3 1.66332 3.9 0.776719 5 0.776719H15C16.1 0.776719 17 1.66332 17 2.74695V4.8748C15.84 5.27869 15 6.36232 15 7.64297V9.64275H5V7.63312C5 6.36232 4.16 5.26884 3 4.86494ZM18 5.70229C16.9 5.70229 16 6.5889 16 7.67252V10.6279H4V7.67252C4 7.14998 3.78929 6.64885 3.41421 6.27936C3.03914 5.90987 2.53043 5.70229 2 5.70229C1.46957 5.70229 0.960859 5.90987 0.585786 6.27936C0.210714 6.64885 0 7.14998 0 7.67252V12.5981C0 13.6817 0.9 14.5683 2 14.5683V16.5386H4V14.5683H16V16.5386H18V14.5683C19.1 14.5683 20 13.6817 20 12.5981V7.67252C20 6.5889 19.1 5.70229 18 5.70229Z" fill="white"/>
</svg>
