<svg width="41" height="41" viewBox="0 0 41 41" fill="none" xmlns="http://www.w3.org/2000/svg">
<path d="M20.5 8.30982C13.8467 8.30982 8.43795 13.7185 8.42879 20.3719C8.42879 22.6507 9.06942 24.8746 10.2775 26.7873L10.5612 27.2449L9.34397 31.6926L13.9107 30.4938L14.35 30.7592C16.1987 31.8574 18.3219 32.4431 20.4908 32.4431H20.5C27.1442 32.4431 32.6993 27.0344 32.6993 20.381C32.6993 17.1596 31.3083 14.1304 29.0295 11.8516C26.7415 9.56362 23.7214 8.30982 20.5 8.30982ZM27.5926 25.5518C27.2906 26.4029 25.8446 27.1717 25.1491 27.2723C23.996 27.4462 23.0991 27.3547 20.802 26.3663C17.1688 24.7922 14.7893 21.1315 14.6063 20.8935C14.4232 20.6556 13.1237 18.9259 13.1237 17.1413C13.1237 15.3567 14.0571 14.4781 14.3958 14.1121C14.7252 13.746 15.1187 13.6545 15.3658 13.6545C15.6038 13.6545 15.8509 13.6545 16.0614 13.6636C16.281 13.6728 16.583 13.5813 16.8759 14.2859C17.1779 15.0089 17.9009 16.7935 17.9924 16.9766C18.0839 17.1596 18.148 17.3701 18.0199 17.608C17.3243 18.9991 16.583 18.9442 16.9583 19.5848C18.3585 21.9917 19.7587 22.8246 21.8911 23.8953C22.2571 24.0783 22.4676 24.0509 22.6781 23.8038C22.8886 23.5658 23.5842 22.7422 23.8221 22.3853C24.06 22.0192 24.3071 22.0833 24.6366 22.2022C24.9661 22.3212 26.7507 23.1998 27.1167 23.3828C27.4828 23.5658 27.7208 23.6574 27.8123 23.8038C27.8946 23.9777 27.8946 24.7098 27.5926 25.5518ZM36.6071 0H4.39286C1.96763 0 0 1.96763 0 4.39286V36.6071C0 39.0324 1.96763 41 4.39286 41H36.6071C39.0324 41 41 39.0324 41 36.6071V4.39286C41 1.96763 39.0324 0 36.6071 0ZM20.4908 34.8866C18.0565 34.8866 15.6679 34.2734 13.5538 33.1203L5.85714 35.1429L7.91629 27.6201C6.6442 25.4237 5.97612 22.9252 5.97612 20.3627C5.98527 12.3641 12.4922 5.85714 20.4908 5.85714C24.3712 5.85714 28.0136 7.36719 30.7592 10.1127C33.4955 12.8583 35.1429 16.5007 35.1429 20.381C35.1429 28.3797 28.4895 34.8866 20.4908 34.8866Z" fill="white"/>
</svg>
